<svg width="44" height="44" viewBox="0 0 44 44" fill="none" xmlns="http://www.w3.org/2000/svg">
<path d="M28.5908 7.7085H15.4091C11.1558 7.7085 7.7085 11.1564 7.7085 15.4097V28.5902C7.7085 32.8435 11.1564 36.2914 15.4097 36.2914H28.5902C32.8435 36.2914 36.2914 32.8435 36.2914 28.5902V15.4097C36.2914 11.1564 32.8441 7.7085 28.5908 7.7085Z" fill="#FBF3EE"/>
<path d="M28.5908 7.7085H15.4091C11.1558 7.7085 7.7085 11.1564 7.7085 15.4097V28.5902C7.7085 32.8435 11.1564 36.2914 15.4097 36.2914H28.5902C32.8435 36.2914 36.2914 32.8435 36.2914 28.5902V15.4097C36.2914 11.1564 32.8441 7.7085 28.5908 7.7085Z" stroke="#606542" stroke-width="2" stroke-miterlimit="10"/>
<path d="M22 28.8995C25.8105 28.8995 28.8995 25.8105 28.8995 22C28.8995 18.1896 25.8105 15.1006 22 15.1006C18.1896 15.1006 15.1006 18.1896 15.1006 22C15.1006 25.8105 18.1896 28.8995 22 28.8995Z" stroke="#606542" stroke-width="2" stroke-miterlimit="10"/>
<path d="M30.3777 15.1006C31.1941 15.1006 31.856 14.4388 31.856 13.6223C31.856 12.8059 31.1941 12.144 30.3777 12.144C29.5613 12.144 28.8994 12.8059 28.8994 13.6223C28.8994 14.4388 29.5613 15.1006 30.3777 15.1006Z" fill="#606542"/>
</svg>
