<svg width="35" height="35" viewBox="0 0 35 35" fill="none" xmlns="http://www.w3.org/2000/svg">
<path d="M8.33333 26.5129V13.6795M34 10.0129V24.6795C34 27.1107 33.0342 29.4423 31.3151 31.1613C29.5961 32.8804 27.2645 33.8462 24.8333 33.8462H10.1667C7.73552 33.8462 5.40394 32.8804 3.68485 31.1613C1.96577 29.4423 1 27.1107 1 24.6795V10.0129C1 7.58171 1.96577 5.25013 3.68485 3.53105C5.40394 1.81196 7.73552 0.846191 10.1667 0.846191H24.8333C27.2645 0.846191 29.5961 1.81196 31.3151 3.53105C33.0342 5.25013 34 7.58171 34 10.0129Z" stroke="#606542" stroke-width="1.5" stroke-linecap="round" stroke-linejoin="round"/>
<path d="M15.6668 26.5128V20.5544M15.6668 20.5544V13.6794M15.6668 20.5544C15.6668 13.6794 26.6668 13.6794 26.6668 20.5544V26.5128M8.3335 8.19778L8.35183 8.17761" stroke="#606542" stroke-width="1.5" stroke-linecap="round" stroke-linejoin="round"/>
</svg>
